<?xml version="1.0" encoding="utf-8"?>
<!-- Generator: Adobe Illustrator 18.0.0, SVG Export Plug-In . SVG Version: 6.00 Build 0)  -->
<!DOCTYPE svg PUBLIC "-//W3C//DTD SVG 1.1//EN" "http://www.w3.org/Graphics/SVG/1.1/DTD/svg11.dtd">
<svg version="1.1" id="Layer_1" xmlns="http://www.w3.org/2000/svg" xmlns:xlink="http://www.w3.org/1999/xlink" x="0px" y="0px"
	 viewBox="0 0 52.5 44.3" enable-background="new 0 0 52.5 44.3" xml:space="preserve">
<g>
	<rect x="3.7" y="3.1" fill="#E86D00" width="45.2" height="38.2"/>
	<path fill="#1A3294" d="M0,0v44.3h52.5V0H0z M49.9,42.2H2.5V2.1h47.4V42.2z"/>
	<path fill="#FFFFFF" d="M7.2,29.1v-16L13.3,7h13.9c0,0,3.6,1.2,5.4,5.1c0.8-1.1,4.4-5.2,8.6-5.2s4.7,0,4.7,0V15h-3.2
		c0,0-6.6,1.3-6.6,7.3c0,3.1,2.6,7.5,6.7,7.5c2.2,0,3.4,0,3.4,0v7.7h-4.6c0,0-4-0.3-8.2-4.2c0,0-2.8,4-6.6,4s-19.6,0-19.6,0v-6.6h16
		c0,0,2.6,0,2.6-3.5c0-1.5-1.5-2.4-3.6-2.4c-1.6,0-4.6,0-4.6,0V19h4.3c0,0,2.6-0.1,2.6-3c0-0.9-0.3-3.1-2.8-3.1s-5.6,0-5.6,0v16.1
		L7.2,29.1z"/>
</g>
</svg>
